<svg width="23" height="23" viewBox="0 0 23 23" fill="none" xmlns="http://www.w3.org/2000/svg">
<path d="M16.269 12.151C17.1946 11.2117 17.8219 10.0197 18.0721 8.72484C18.3222 7.43001 18.184 6.09013 17.6749 4.87361C17.1657 3.65709 16.3083 2.61822 15.2105 1.88757C14.1126 1.15691 12.8233 0.76709 11.5045 0.76709C10.1857 0.76709 8.89639 1.15691 7.79853 1.88757C6.70066 2.61822 5.84328 3.65709 5.33413 4.87361C4.82498 6.09013 4.68679 7.43001 4.93693 8.72484C5.18707 10.0197 5.81438 11.2117 6.74 12.151C4.99275 12.8379 3.49231 14.0341 2.43344 15.5845C1.37457 17.1348 0.806166 18.9676 0.802002 20.845C0.801871 21.0208 0.836389 21.1948 0.903584 21.3572C0.970778 21.5196 1.06933 21.6671 1.1936 21.7914C1.31787 21.9157 1.46542 22.0142 1.62782 22.0814C1.79021 22.1486 1.96426 22.1831 2.14 22.183H20.87C21.0457 22.1831 21.2198 22.1486 21.3822 22.0814C21.5446 22.0142 21.6921 21.9157 21.8164 21.7914C21.9407 21.6671 22.0392 21.5196 22.1064 21.3572C22.1736 21.1948 22.2081 21.0208 22.208 20.845C22.2038 18.9675 21.6352 17.1346 20.5761 15.5842C19.5171 14.0339 18.0164 12.8377 16.269 12.151ZM7.491 7.46701C7.491 9.68401 7.494 5.25101 7.491 7.46701V7.46701Z" fill="#F5D716"/>
</svg>
