<svg width="23" height="23" viewBox="0 0 23 23" fill="none" xmlns="http://www.w3.org/2000/svg">
<path d="M6.40496 12.211C5.59361 10.4165 5.43755 8.39412 5.96398 6.49633C6.49041 4.59854 7.66595 2.94559 9.28582 1.82543C10.9057 0.705268 12.8672 0.188908 14.8287 0.366303C16.7901 0.543698 18.6271 1.4036 20.0198 2.79622C21.4124 4.18883 22.2723 6.02587 22.4497 7.98732C22.6271 9.94876 22.1107 11.9103 20.9905 13.5301C19.8704 15.15 18.2174 16.3256 16.3196 16.852C14.4218 17.3784 12.3995 17.2224 10.605 16.411L9.85696 17.159H7.05896V19.959H4.25896V22.759H0.05896V18.559L6.40496 12.211ZM14.054 11.559C14.6077 11.559 15.1491 11.3948 15.6096 11.0871C16.07 10.7795 16.4289 10.3422 16.6408 9.83052C16.8527 9.31889 16.9082 8.7559 16.8002 8.21276C16.6921 7.66961 16.4254 7.1707 16.0339 6.77911C15.6423 6.38752 15.1434 6.12085 14.6002 6.01281C14.0571 5.90477 13.4941 5.96022 12.9824 6.17215C12.4708 6.38407 12.0335 6.74295 11.7258 7.20341C11.4182 7.66387 11.254 8.20522 11.254 8.75901C11.2534 9.12705 11.3255 9.49158 11.4659 9.83175C11.6064 10.1719 11.8126 10.4811 12.0726 10.7415C12.3327 11.0019 12.6415 11.2085 12.9815 11.3495C13.3215 11.4905 13.6859 11.563 14.054 11.563V11.559Z" fill="white"/>
</svg>
