<svg width="118" height="211" viewBox="0 0 118 211" fill="none" xmlns="http://www.w3.org/2000/svg">
<g filter="url(#filter0_d_119_1244)">
<path d="M52.7585 178.96L52.3729 188.493C52.3729 188.493 61.9296 192.086 62.0284 193.855L43.498 193.789V178.913L52.7585 178.96Z" fill="#263238"/>
<path d="M46.6443 187.675C46.4666 187.729 46.315 187.847 46.218 188.005C46.121 188.164 46.0853 188.352 46.1175 188.535C46.1654 188.715 46.28 188.871 46.4381 188.969C46.5962 189.068 46.7859 189.103 46.9688 189.067C47.1576 189.009 47.3183 188.883 47.4199 188.714C47.5215 188.544 47.5568 188.343 47.5191 188.15C47.4547 187.964 47.3203 187.811 47.1446 187.723C46.9688 187.635 46.7656 187.619 46.5784 187.679" fill="#E0E0E0"/>
<path d="M43.498 193.789L43.5545 192.293L61.2806 192.937C61.2806 192.937 62.1037 193.3 62.0049 193.878L43.498 193.789Z" fill="#455A64"/>
<path d="M52.646 188.399C52.646 188.488 52.1757 188.526 51.7477 188.817C51.3197 189.109 51.061 189.485 50.9764 189.448C50.8917 189.41 51.0328 188.888 51.5784 188.549C52.1239 188.211 52.6695 188.314 52.646 188.399Z" fill="white"/>
<path d="M54.5838 189.213C54.6073 189.297 54.2122 189.448 53.9065 189.829C53.6008 190.21 53.5068 190.614 53.4362 190.609C53.3657 190.605 53.2904 190.097 53.6808 189.631C54.0711 189.166 54.5838 189.123 54.5838 189.213Z" fill="white"/>
<path d="M55.6791 191.541C55.5944 191.541 55.4721 191.108 55.7073 190.6C55.9425 190.092 56.3657 189.909 56.4034 189.984C56.441 190.059 56.1776 190.322 55.9895 190.732C55.8014 191.141 55.7684 191.531 55.6791 191.541Z" fill="white"/>
<path d="M52.4956 186.217C52.458 186.297 52.0253 186.17 51.555 186.217C51.0846 186.264 50.6472 186.409 50.6143 186.33C50.5814 186.25 50.953 185.934 51.555 185.902C52.157 185.869 52.5426 186.146 52.4956 186.217Z" fill="white"/>
<path d="M30.0331 178.739L29.3182 190.261L31.3829 199.536C31.4161 199.693 31.4168 199.856 31.385 200.013C31.3532 200.171 31.2895 200.32 31.1979 200.452C31.1063 200.584 30.9887 200.696 30.8523 200.781C30.7159 200.867 30.5635 200.923 30.4046 200.947C30.2187 200.975 30.0289 200.958 29.8507 200.898C29.6725 200.839 29.511 200.738 29.3793 200.604C27.6862 198.845 21.4875 192.354 21.5862 191.512C21.6991 190.539 21.5298 179.308 21.5298 179.308L30.0331 178.739Z" fill="#263238"/>
<path d="M30.4046 200.937L21.6144 190.722V191.193C21.5994 191.615 21.7325 192.029 21.9907 192.364C22.6915 193.253 24.6762 195.656 29.3652 200.575C29.5 200.715 29.667 200.819 29.8515 200.879C30.036 200.939 30.2324 200.952 30.4234 200.919L30.4046 200.937Z" fill="#455A64"/>
<g opacity="0.6">
<path d="M24.1259 187.096C24.2637 187.206 24.3562 187.362 24.3857 187.536C24.4152 187.709 24.3797 187.888 24.2858 188.037C24.1818 188.182 24.025 188.28 23.8491 188.311C23.6732 188.342 23.4923 188.303 23.3452 188.201C23.1989 188.085 23.101 187.919 23.0706 187.735C23.0402 187.55 23.0794 187.361 23.1806 187.204C23.3049 187.068 23.4771 186.985 23.6612 186.973C23.8452 186.961 24.0269 187.02 24.1682 187.138" fill="white"/>
</g>
<path d="M27.9684 195.797C28.2586 195.446 28.6129 195.154 29.0125 194.936C29.4431 194.787 29.8975 194.719 30.3529 194.734C30.3529 194.706 30.2212 194.612 29.9531 194.565C29.5988 194.509 29.2359 194.558 28.909 194.706C28.5838 194.851 28.3065 195.086 28.1095 195.383C27.9637 195.614 27.9402 195.788 27.9684 195.797Z" fill="white"/>
<path d="M28.73 197.373C29.0663 197.194 29.4134 197.037 29.7694 196.902C30.3714 196.742 30.8794 196.874 30.9029 196.799C30.7288 196.683 30.53 196.61 30.3224 196.586C30.1149 196.561 29.9045 196.586 29.7083 196.658C29.0169 196.841 28.6689 197.34 28.73 197.373Z" fill="white"/>
<path d="M26.515 193.756C27.0134 193.447 27.5337 193.175 28.0717 192.942C28.6394 192.789 29.218 192.679 29.8024 192.613C29.2018 192.471 28.5731 192.503 27.9899 192.705C27.4068 192.907 26.8935 193.272 26.5103 193.756H26.515Z" fill="white"/>
<path d="M26.4209 190.238C26.4491 190.308 27.0934 190.064 27.9259 190.069C28.7584 190.073 29.4074 190.294 29.4356 190.224C28.9965 189.913 28.4617 189.768 27.9259 189.815C27.3899 189.773 26.8565 189.923 26.4209 190.238Z" fill="white"/>
<path d="M26.562 186.847C27.0704 186.705 27.5956 186.632 28.1234 186.631C28.6478 186.716 29.1576 186.874 29.6378 187.101C29.6378 187.077 29.5391 186.927 29.2804 186.762C28.935 186.553 28.5449 186.429 28.1423 186.4C27.7406 186.37 27.3374 186.436 26.9665 186.593C26.689 186.692 26.5479 186.823 26.562 186.847Z" fill="white"/>
<path d="M28.1283 185.986C28.1736 185.845 28.1849 185.695 28.1613 185.549C28.1379 185.149 28.0356 184.757 27.8603 184.397C27.7548 184.12 27.5615 183.885 27.31 183.729C27.2223 183.685 27.123 183.669 27.026 183.684C26.929 183.699 26.8392 183.745 26.7691 183.813C26.6406 183.955 26.5686 184.139 26.5669 184.331C26.5787 184.72 26.7262 185.093 26.9838 185.385C27.2415 185.677 27.5931 185.87 27.9778 185.93C28.3584 185.983 28.7462 185.922 29.0921 185.755C29.438 185.587 29.7262 185.321 29.9202 184.989C29.9673 184.905 29.9962 184.811 30.0051 184.715C30.014 184.618 30.0027 184.521 29.972 184.429C29.93 184.343 29.8624 184.271 29.7783 184.224C29.6942 184.177 29.5976 184.156 29.5017 184.166C29.2174 184.218 28.9516 184.342 28.7303 184.528C28.4055 184.764 28.1266 185.057 27.9073 185.394C27.8157 185.508 27.7499 185.642 27.7145 185.784C28.0296 185.36 28.4069 184.986 28.8338 184.674C29.033 184.519 29.2672 184.416 29.5158 184.373C29.5688 184.366 29.6226 184.377 29.6692 184.403C29.7158 184.429 29.7527 184.47 29.7744 184.519C29.7918 184.58 29.7957 184.644 29.786 184.706C29.7762 184.769 29.753 184.828 29.718 184.881C29.5424 185.163 29.2892 185.387 28.9888 185.528C28.6884 185.669 28.3537 185.721 28.0249 185.676C27.7011 185.623 27.405 185.461 27.1853 185.218C26.9656 184.974 26.8354 184.663 26.8162 184.335C26.8129 184.202 26.858 184.072 26.9431 183.969C26.981 183.93 27.0299 183.904 27.083 183.895C27.1361 183.886 27.1908 183.893 27.2394 183.917C27.4501 184.048 27.6145 184.242 27.7098 184.472C27.9397 184.947 28.0816 185.46 28.1283 185.986Z" fill="white"/>
<path d="M59.6159 98.87C59.6159 98.87 59.6911 104.001 59.3525 110.628C59.2161 113.191 53.8169 184.528 53.8169 184.528L42.1484 184.82L43.7569 118.148L42.8163 118.383C42.8163 118.383 37.149 146.945 36.768 151.559C36.4059 155.703 31.7874 185.864 31.7874 185.864L21.0972 186.264L23.5099 146.461L26.5152 108.253L27.7286 97.1252L59.6159 98.87Z" fill="#455A64"/>
<path d="M41.7437 111.409C41.8898 111.514 42.0476 111.602 42.214 111.672C42.6769 111.893 43.1672 112.051 43.6719 112.142C44.028 112.208 44.3929 112.208 44.749 112.142C45.1655 112.065 45.551 111.869 45.8589 111.578C46.1772 111.238 46.4024 110.822 46.5126 110.369C46.6349 109.899 46.7055 109.429 46.7854 108.958C47.1099 107.025 47.3216 105.262 47.4344 103.987C47.4909 103.347 47.5285 102.83 47.5473 102.473C47.5656 102.286 47.5656 102.099 47.5473 101.913C47.492 102.092 47.4588 102.276 47.4486 102.463L47.2604 103.968C47.1005 105.238 46.8654 106.988 46.5456 108.916C46.3809 109.857 46.2775 110.835 45.699 111.413C45.4283 111.651 45.1083 111.827 44.762 111.927C44.4156 112.027 44.0514 112.049 43.6955 111.992C43.2012 111.918 42.7168 111.789 42.2516 111.606C42.0901 111.522 41.9198 111.455 41.7437 111.409Z" fill="#263238"/>
<path d="M45.0316 102.289C45.0316 102.289 44.9516 102.228 44.787 102.223C44.5529 102.224 44.3257 102.303 44.1427 102.449C44.0001 102.555 43.8837 102.693 43.8022 102.851C43.7207 103.009 43.6763 103.184 43.6724 103.361C43.6929 103.583 43.7766 103.793 43.9136 103.968C44.0505 104.143 44.2348 104.274 44.4446 104.347C44.6543 104.42 44.8807 104.431 45.0965 104.379C45.3123 104.327 45.5086 104.214 45.6618 104.053C45.7689 103.911 45.8424 103.747 45.8766 103.572C45.9108 103.398 45.9049 103.218 45.8593 103.046C45.8054 102.817 45.6742 102.612 45.4878 102.468C45.3561 102.369 45.262 102.36 45.2573 102.369C45.4747 102.554 45.6251 102.805 45.6853 103.084C45.7126 103.227 45.709 103.375 45.675 103.517C45.6409 103.659 45.5771 103.792 45.4878 103.907C45.3684 104.03 45.2157 104.115 45.0485 104.152C44.8813 104.188 44.707 104.175 44.5471 104.114C44.3788 104.065 44.229 103.966 44.1168 103.831C44.0046 103.696 43.935 103.531 43.9169 103.357C43.9179 103.211 43.9498 103.066 44.0106 102.933C44.0714 102.8 44.1597 102.682 44.2697 102.585C44.4859 102.409 44.7527 102.305 45.0316 102.289Z" fill="#263238"/>
<path d="M26.6611 107.557C26.7908 107.595 26.9257 107.613 27.0609 107.608C27.4257 107.636 27.792 107.636 28.1567 107.608C30.589 107.407 32.8777 106.374 34.6377 104.683C34.8964 104.426 35.1369 104.151 35.3572 103.86C35.5171 103.653 35.5971 103.536 35.583 103.526C35.5689 103.517 35.1832 103.935 34.5013 104.542C32.7168 106.126 30.4925 107.13 28.1238 107.42C27.2302 107.528 26.6611 107.514 26.6611 107.557Z" fill="#263238"/>
<path d="M54.9082 102.256C55.0254 102.661 55.183 103.054 55.3785 103.427C55.7911 104.297 56.2956 105.12 56.8835 105.882C57.4289 106.586 58.061 107.218 58.7648 107.764C59.0231 107.992 59.317 108.176 59.6348 108.309C59.3783 108.062 59.1083 107.83 58.8259 107.613C58.1585 107.034 57.5489 106.391 57.0058 105.694C56.4351 104.954 55.927 104.167 55.4867 103.343C55.3128 102.971 55.1197 102.608 54.9082 102.256Z" fill="#263238"/>
<path d="M89.3306 43.025C89.3306 43.025 89.9937 39.0038 89.8855 38.5241C89.7774 38.0443 91.5175 33.7833 91.5175 33.7833C91.5175 33.7833 92.7356 33.6986 92.5193 35.5235C92.3029 37.3483 92.1713 38.0914 92.1713 38.0914L92.3453 38.6134L95.2565 37.5693C95.2565 37.5693 99.4329 35.2178 100.218 34.8697C101.004 34.5217 102.655 33.6986 103.393 34.5217C103.393 34.5217 104.569 33.8256 104.959 34.3477C105.069 34.461 105.15 34.5994 105.195 34.7509C105.241 34.9024 105.248 35.0626 105.218 35.2178L104.747 35.6881C104.747 35.6881 105.138 35.6457 105.251 36.2995C105.364 36.9532 100.576 40.3442 100.576 40.3442L100.444 40.6922C100.444 40.6922 104.009 38.952 104.272 39.2107C104.536 39.4694 104.794 39.6481 104.357 40.1231C103.92 40.5981 94.9508 46.6088 93.7891 47.0838C92.6275 47.5588 92.3782 47.7046 92.3782 47.7046L89.3306 43.025Z" fill="#FFBE9D"/>
<path d="M104.437 35.6552C103.657 36.2978 102.826 36.8766 101.954 37.3859C101.126 37.963 100.253 38.4726 99.3433 38.9097C100.121 38.2663 100.95 37.6875 101.822 37.179C102.651 36.6012 103.525 36.0916 104.437 35.6552Z" fill="#EB996E"/>
<path d="M103.464 34.6205C103.492 34.6816 102.325 35.2977 100.943 36.149C99.5599 37.0002 98.4735 37.7527 98.4312 37.6963C99.1475 37.0125 99.9471 36.4215 100.811 35.9373C101.634 35.3853 102.526 34.9426 103.464 34.6205Z" fill="#EB996E"/>
<path d="M92.825 44.4453C92.9842 44.218 93.0947 43.9602 93.1495 43.6881C93.2103 43.0085 93.1819 42.3238 93.0648 41.6516C92.8819 40.6987 92.6464 39.7566 92.3594 38.8297C92.8773 39.6809 93.1987 40.6369 93.3 41.6281C93.4204 42.3253 93.4204 43.0379 93.3 43.7351C93.2059 44.2807 92.8297 44.4782 92.825 44.4453Z" fill="#EB996E"/>
<path d="M30.4894 47.0509C30.4894 47.0509 22.5411 51.2272 21.4829 51.8151C20.4247 52.403 27.3242 81.1768 27.3242 81.1768L25.8757 97.3744C25.8204 97.9749 25.8846 98.5804 26.0647 99.156C26.2447 99.7315 26.5369 100.266 26.9245 100.728C26.9245 100.728 49.7347 101.777 52.3214 101.424C55.3267 101.015 59.0516 100.408 59.6395 98.8794C60.2274 97.3509 58.5201 56.5512 58.5201 56.5512L56.051 47.9444C56.051 47.9444 53.3467 47.5917 51.2303 47.3566C49.1139 47.1214 46.6447 46.6276 46.6447 46.6276L45.1021 44.1819L32.4036 43.4341L30.4894 47.0509Z" fill="#FF725E"/>
<path d="M48.9114 101.48C48.9053 101.438 48.9053 101.395 48.9114 101.353C48.9114 101.259 48.9114 101.137 48.9114 100.991C48.9114 100.648 48.9114 100.177 48.9114 99.5802C48.9114 98.3573 48.8785 96.589 48.8127 94.4067C48.7468 92.2244 48.6575 89.6189 48.5117 86.7312C48.3659 83.8435 48.1213 80.6782 47.8062 77.3578C47.4911 74.0374 47.0866 70.8816 46.6539 68.0221C46.2212 65.1626 45.7415 62.6088 45.243 60.4971L44.9044 58.9733C44.7821 58.503 44.6692 58.0326 44.561 57.6282C44.3494 56.7863 44.166 56.062 43.9826 55.4788L43.5922 54.1243C43.5546 53.9785 43.5216 53.8657 43.4981 53.7716C43.4928 53.731 43.4928 53.6899 43.4981 53.6493C43.4981 53.6493 43.4981 53.687 43.5452 53.7622L43.6627 54.1102C43.7709 54.4347 43.912 54.8815 44.1001 55.4506C44.2883 56.0197 44.4905 56.7534 44.7162 57.5906L45.0784 58.9357C45.1913 59.406 45.3088 59.928 45.4358 60.4595C45.9485 62.5853 46.4235 65.1626 46.8891 67.9845C47.3547 70.8064 47.7357 74.0045 48.0649 77.3296C48.3941 80.6547 48.5963 83.8246 48.7468 86.7359C48.8973 89.6471 48.9773 92.2291 49.0008 94.4161C49.0243 96.6031 49.0337 98.3761 49.0008 99.5896C49.0008 100.187 49.0008 100.657 49.0008 101C49.0008 101.146 49.0008 101.269 49.0008 101.363C49.0008 101.457 48.9114 101.48 48.9114 101.48Z" fill="#263238"/>
<path d="M55.2701 62.2561C55.2701 62.2561 68.4059 62.9521 71.7311 62.2561C75.0562 61.56 84.5377 55.888 86.3672 53.9974C88.1967 52.1067 92.9516 47.7328 92.9516 47.7328L89.7723 41.8774L85.2855 45.2589C85.2855 45.2589 72.3143 51.627 71.3172 51.627C70.3201 51.627 62.5035 51.326 62.5035 51.326C62.5035 51.326 57.9321 48.2313 56.0508 47.9444C54.1695 47.6575 53.4312 50.9168 53.4312 50.9168L55.2701 62.2561Z" fill="#FF725E"/>
<path d="M58.4967 56.5418C58.5409 56.8172 58.566 57.0954 58.5719 57.3742C58.6096 57.9057 58.6425 58.6817 58.6848 59.6364C58.7601 61.5506 58.8259 64.1938 58.9012 67.1097C58.9764 70.0257 59.0752 72.6688 59.1645 74.5783C59.2116 75.5189 59.2492 76.2667 59.2774 76.8405C59.2971 77.1177 59.2971 77.3958 59.2774 77.673C59.2172 77.4006 59.1794 77.1238 59.1645 76.8452C59.1081 76.3138 59.0422 75.5425 58.9764 74.5877C58.8353 72.6782 58.713 70.0351 58.6378 67.1144C58.5625 64.1938 58.5249 61.5553 58.492 59.6412C58.492 58.7005 58.492 57.9527 58.4591 57.3742C58.4487 57.0962 58.4613 56.8178 58.4967 56.5418Z" fill="#263238"/>
<g opacity="0.3">
<path d="M58.0545 77.3532C57.9818 76.974 57.8143 76.6195 57.5676 76.3226C57.3209 76.0257 57.003 75.7962 56.6436 75.6553C55.9294 75.3732 55.168 75.2296 54.4002 75.232C44.3829 74.7966 34.5773 78.2014 26.9856 84.7512L26.5952 87.4649C29.0079 88.4949 31.811 87.7894 34.2049 86.7124C36.5988 85.6354 38.8704 84.1868 41.4477 83.6883C43.6817 83.2556 46.0897 83.5472 48.1497 82.583C49.4525 81.9763 50.5013 80.9087 51.884 80.4619C53.1021 80.0669 54.4331 80.2127 55.6794 79.9258C56.9257 79.6389 58.2097 78.623 58.0545 77.3532Z" fill="black"/>
</g>
<path d="M21.4827 51.8245C21.4827 51.8245 17.043 55.6341 16.441 58.6441C15.839 61.6541 13.8354 69.8752 13.8354 69.8752C13.8354 69.8752 11.7284 79.7 12.0294 81.6048C12.3304 83.5096 12.9701 87.7612 17.0759 88.2644C21.1817 88.7677 35.4934 83.5096 35.4934 83.5096L39.4064 81.9058L37.9014 74.6865L31.1806 76.3937L24.5962 76.9158L25.4804 70.9146L26.9384 67.058C26.9384 67.058 26.8584 62.8534 25.2546 59.3448C23.6509 55.8363 21.4827 51.8245 21.4827 51.8245Z" fill="#FF725E"/>
<path d="M46.0049 71.2485L51.1784 60.6664C51.3523 60.3157 51.6204 60.0204 51.9526 59.8136C52.2849 59.6067 52.6682 59.4965 53.0596 59.4953H66.1014C66.2119 59.4953 66.3205 59.5239 66.4166 59.5784C66.5127 59.6328 66.5931 59.7112 66.6499 59.8059C66.7067 59.9006 66.7381 60.0084 66.7409 60.1188C66.7437 60.2292 66.7178 60.3385 66.6658 60.436L57.838 76.8969C57.7176 77.1252 57.5368 77.3161 57.3154 77.4488C57.094 77.5815 56.8404 77.6509 56.5823 77.6494H43.0796L46.0049 71.2485Z" fill="#455A64"/>
<path d="M66.6048 60.5159C66.519 60.527 66.432 60.527 66.3462 60.5159H65.5984H62.847L53.7935 60.4407C53.3741 60.4356 52.9601 60.5359 52.5895 60.7323C52.2467 60.9478 51.9701 61.2538 51.79 61.6165C51.409 62.3407 51.0892 63.0932 50.76 63.7799L49.0292 67.4672L47.844 69.9457C47.7076 70.2185 47.5995 70.4395 47.5101 70.6136C47.4752 70.6952 47.431 70.7725 47.3784 70.844C47.3967 70.7572 47.4268 70.6734 47.4678 70.5947C47.543 70.4113 47.6418 70.1856 47.7594 69.9081L48.874 67.3966L50.5577 63.6858C50.8823 62.9898 51.188 62.2749 51.5783 61.4989C51.7814 61.0989 52.0884 60.761 52.4672 60.5206C52.8733 60.307 53.3253 60.1956 53.7841 60.1961C57.335 60.1961 60.5284 60.2949 62.8517 60.3419L65.5984 60.4219L66.3462 60.4548C66.4349 60.4628 66.5219 60.4834 66.6048 60.5159Z" fill="#263238"/>
<path d="M58.5669 62.8346C58.629 62.8575 58.6849 62.8945 58.7303 62.9427C58.7757 62.9909 58.8093 63.0489 58.8284 63.1123C58.8475 63.1756 58.8517 63.2426 58.8406 63.3078C58.8295 63.3731 58.8035 63.4348 58.7645 63.4883C58.6911 63.5986 58.5847 63.683 58.4606 63.7295C58.3365 63.7759 58.2009 63.782 58.0731 63.747C57.9866 63.7295 57.9068 63.688 57.8427 63.6273C57.7787 63.5666 57.733 63.4891 57.711 63.4037C57.7035 63.2736 57.7384 63.1445 57.8105 63.036C57.8826 62.9274 57.9879 62.8452 58.1107 62.8017C58.2631 62.7733 58.4202 62.7846 58.5669 62.8346Z" fill="white"/>
<path d="M38.0332 75.3261L38.9315 74.3855C38.9315 74.3855 40.2531 72.4666 40.8128 71.8646C41.3724 71.2626 44.5753 69.1603 44.5753 69.1603C44.5753 69.1603 46.1414 67.0439 46.3813 67.0439C46.6211 67.0439 47.3783 67.1803 47.1761 68.1632C46.9822 69.1292 46.6955 70.0742 46.3201 70.9851L53.2431 71.1403C53.4592 71.1411 53.6723 71.1896 53.8675 71.2822C54.0626 71.3749 54.2348 71.5095 54.3719 71.6765C54.5506 71.9116 54.6259 72.1468 54.3014 72.3255C53.1035 72.7562 51.8818 73.1174 50.6423 73.4072L51.9545 73.0686C51.9545 73.0686 52.2367 74.3243 51.4042 74.9216C51.0805 75.1179 50.7833 75.355 50.52 75.6271C50.52 75.6271 50.4777 76.817 50.1203 77.2967C49.7628 77.7764 45.8592 79.7847 45.8592 79.7847C45.8592 79.7847 43.3666 80.5184 42.0967 80.4619C40.8269 80.4055 39.5382 81.1157 39.3971 81.1533C39.256 81.1909 38.0332 75.3261 38.0332 75.3261Z" fill="#FFBE9D"/>
<path d="M46.9832 71.0368C46.3416 71.1543 45.6925 71.2266 45.0408 71.2532C44.3939 71.3694 43.7349 71.4025 43.0796 71.3519C43.7095 71.1606 44.36 71.0454 45.0173 71.0086C45.669 70.9009 46.3348 70.9105 46.9832 71.0368Z" fill="#EB996E"/>
<path d="M46.0614 74.1221C46.0378 74.0468 47.303 73.7035 48.8832 73.5201C49.6734 73.4213 50.3929 73.3508 50.9103 73.2943C51.1892 73.2413 51.4731 73.2192 51.7569 73.2285C51.4985 73.3548 51.2199 73.4344 50.9338 73.4637C50.4212 73.5671 49.7063 73.6659 48.9162 73.7647C47.3359 73.9481 46.0755 74.1785 46.0614 74.1221Z" fill="#EB996E"/>
<path d="M46.0615 76.389C46.0615 76.3185 47.068 76.2856 48.2861 76.0739C49.5042 75.8623 50.4684 75.5613 50.4966 75.6036C49.8241 75.9683 49.0882 76.2013 48.3284 76.2903C47.5857 76.4653 46.8167 76.4988 46.0615 76.389Z" fill="#EB996E"/>
<path d="M46.4802 78.9287C46.4097 78.9287 46.3109 78.6653 46.2545 78.322C46.198 77.9787 46.2027 77.6824 46.2545 77.673C46.3062 77.6636 46.4191 77.9316 46.4755 78.2797C46.5319 78.6277 46.546 78.9146 46.4802 78.9287Z" fill="#EB996E"/>
<path d="M45.8591 75.8858C45.7885 75.8858 45.7509 75.6553 45.6333 75.4155C45.5157 75.1756 45.3652 75.0063 45.4029 74.9451C45.4405 74.884 45.7039 74.9969 45.8732 75.3026C46.0425 75.6083 45.9249 75.8999 45.8591 75.8858Z" fill="#EB996E"/>
<path d="M45.0692 72.8428C44.9987 72.8428 44.9281 72.7065 44.8435 72.5418C44.7588 72.3772 44.6883 72.2314 44.7353 72.1844C44.7823 72.1374 44.961 72.222 45.0645 72.4337C45.168 72.6453 45.1351 72.8381 45.0692 72.8428Z" fill="#EB996E"/>
<path d="M43.4371 53.6352C43.2987 53.5705 43.1665 53.4933 43.042 53.4048L41.9415 52.7416C41.4712 52.4594 40.9068 52.1255 40.2672 51.7304C39.5468 51.3055 38.8612 50.8242 38.2166 50.2913L38.3953 50.2584C37.8686 51.292 37.6144 52.443 37.6569 53.6023V53.8798L37.4453 53.7011C35.4136 51.9656 33.584 50.3712 32.3142 49.1578C31.6793 48.5511 31.176 48.0526 30.8421 47.6952C30.6572 47.5197 30.4887 47.3276 30.3389 47.1214C30.5426 47.2726 30.7329 47.4409 30.9079 47.6246L32.4318 49.0355C33.7298 50.2113 35.5688 51.7822 37.6052 53.5223L37.403 53.6211C37.3527 52.4176 37.6204 51.2221 38.179 50.1549L38.2448 50.0232L38.3577 50.122C38.987 50.6539 39.6552 51.1381 40.3565 51.5705L42.0026 52.6193C42.473 52.9156 42.821 53.1555 43.0608 53.3342C43.1991 53.4174 43.3256 53.5187 43.4371 53.6352Z" fill="#263238"/>
<path d="M46.6446 46.6276C46.7521 46.7859 46.8405 46.9564 46.908 47.1355C47.0632 47.4694 47.2654 47.9633 47.5006 48.5747C47.7358 49.1861 47.9991 49.9245 48.2484 50.7616C48.3142 50.9733 48.3707 51.1896 48.4177 51.4154C48.4515 51.5425 48.4627 51.6747 48.4506 51.8057C48.4415 51.8504 48.4152 51.8898 48.3774 51.9153C48.3396 51.9408 48.2933 51.9504 48.2484 51.9421C48.2085 51.9327 48.1724 51.9114 48.1449 51.881L48.1167 51.8433L48.0085 51.7069L47.1149 50.5453L45.958 49.0356H46.1555C45.4359 50.3995 44.7775 51.5706 44.2742 52.3842C44.025 52.7934 43.8039 53.1085 43.6675 53.3248C43.5963 53.44 43.5109 53.5458 43.4136 53.6399C43.4594 53.5121 43.521 53.3904 43.597 53.2778C43.7475 53.0144 43.9309 52.6899 44.1426 52.3089C44.6129 51.4765 45.2337 50.296 45.9439 48.9227L46.0285 48.7581L46.1414 48.9086C46.5082 49.3789 46.8986 49.8821 47.2984 50.4042L48.1873 51.5611L48.2907 51.7022L48.3189 51.7352L48.2766 51.7822H48.2155C48.2162 51.6843 48.2068 51.5866 48.1873 51.4906C48.1402 51.2743 48.0885 51.0579 48.0274 50.851C47.7969 50.0232 47.557 49.2848 47.3313 48.664L46.8186 47.1966C46.7381 47.0146 46.6797 46.8235 46.6446 46.6276Z" fill="#263238"/>
<path d="M89.5938 50.8604C89.3322 50.626 89.1001 50.3607 88.9025 50.0703C88.498 49.567 87.9619 48.8569 87.4069 48.0385C86.9254 47.3417 86.5067 46.6036 86.1559 45.8327C85.9922 45.5185 85.8931 45.1747 85.8643 44.8216C85.9019 44.8216 86.0195 45.1884 86.3346 45.7622C86.726 46.5012 87.1594 47.2173 87.6326 47.9068C88.7097 49.52 89.6597 50.8134 89.5938 50.8604Z" fill="#263238"/>
<path d="M33.2456 84.2762C33.0882 83.9053 32.9638 83.5213 32.874 83.1286C32.6718 82.4184 32.4037 81.4308 32.1121 80.3349C31.8205 79.2391 31.6089 78.2326 31.4819 77.5131C31.3915 77.1196 31.3442 76.7175 31.3408 76.3138C31.4806 76.6904 31.5845 77.0793 31.6512 77.4754C31.8205 78.1997 32.0651 79.1921 32.3473 80.2973C32.6295 81.4025 32.8835 82.3855 33.0434 83.1192C33.152 83.4965 33.2198 83.8844 33.2456 84.2762Z" fill="#263238"/>
<path d="M35.0467 77.2732C35.0467 77.3061 34.9103 77.4049 34.8774 77.6542C34.8609 77.7912 34.898 77.9294 34.9808 78.0398C35.0358 78.0962 35.1052 78.1366 35.1815 78.1565C35.2577 78.1764 35.338 78.1751 35.4135 78.1527C35.491 78.1381 35.5628 78.1022 35.621 78.0491C35.6792 77.9959 35.7213 77.9275 35.7428 77.8517C35.7568 77.7848 35.7561 77.7156 35.7406 77.649C35.7252 77.5824 35.6954 77.5199 35.6534 77.466C35.5123 77.2544 35.3242 77.2403 35.3289 77.2026C35.3336 77.165 35.5546 77.1133 35.7992 77.3531C35.8667 77.4246 35.9174 77.5103 35.9475 77.6038C35.9776 77.6974 35.9864 77.7966 35.9732 77.894C35.9484 78.0162 35.8885 78.1285 35.8008 78.217C35.713 78.3056 35.6013 78.3666 35.4794 78.3925C35.3599 78.4264 35.2329 78.4239 35.1148 78.3854C34.9967 78.3469 34.8928 78.274 34.8162 78.1762C34.7594 78.0969 34.7211 78.0059 34.704 77.9099C34.6869 77.8139 34.6915 77.7152 34.7175 77.6212C34.8068 77.2967 35.0467 77.245 35.0467 77.2732Z" fill="#263238"/>
<path d="M16.2622 76.2432C16.6483 76.081 17.0551 75.9734 17.4709 75.9234C19.4652 75.5766 21.5146 75.7383 23.4298 76.3937C23.8308 76.5097 24.2138 76.6806 24.5679 76.9017C24.165 76.8104 23.7677 76.6957 23.3781 76.5583C22.4244 76.2846 21.4461 76.1051 20.4574 76.0222C19.4701 75.948 18.4779 75.9685 17.4944 76.0833C17.0869 76.1588 16.6755 76.2122 16.2622 76.2432Z" fill="#263238"/>
<path d="M20.4153 74.4513C21.2487 74.5207 22.0542 74.7849 22.7669 75.2226C23.5227 75.5919 24.1803 76.1351 24.6857 76.8076C24.634 76.8593 23.8345 76.0833 22.6493 75.439C21.4641 74.7947 20.3965 74.5219 20.4153 74.4513Z" fill="#263238"/>
<path d="M26.0308 67.3637C26.0362 67.4216 26.0362 67.4798 26.0308 67.5377C26.0308 67.66 25.9932 67.8246 25.9697 68.008C25.9085 68.4783 25.8192 69.0897 25.711 69.8893C25.4711 71.5354 25.1372 73.8728 24.7233 76.7229C24.7233 76.7825 24.7233 76.8483 24.7233 76.9204L24.6199 76.817L31.6746 76.1538L37.9203 74.5642L38.0426 74.5313V74.6582C38.1649 75.2273 38.2919 75.8387 38.4189 76.4548C38.8092 78.3361 39.1855 80.1468 39.5476 81.8776V81.9763L39.4535 82.0139C35.1634 83.8014 30.7652 85.3172 26.2848 86.5525C24.6057 87.0228 23.2559 87.3285 22.3247 87.5401L21.2524 87.7753L20.9749 87.827C20.9138 87.827 20.8809 87.827 20.8809 87.827C20.8809 87.827 20.9091 87.827 20.9702 87.7941L21.243 87.7189L22.3059 87.4461C23.2465 87.2109 24.5728 86.8629 26.2424 86.3879C30.7028 85.1097 35.0843 83.5707 39.3642 81.7788L39.2936 81.9105L38.179 76.5113C38.052 75.8952 37.925 75.2838 37.8027 74.71L37.9532 74.804L31.7075 76.3843L24.6528 77.0098H24.5399V76.8969V76.6994C25.0102 73.854 25.3535 71.5259 25.6075 69.8799C25.7392 69.085 25.8427 68.4689 25.9179 67.9986C25.9555 67.7964 25.9838 67.6365 26.0026 67.5283C26.0065 67.4726 26.016 67.4175 26.0308 67.3637Z" fill="#263238"/>
<path d="M26.5009 60.2761C26.3765 59.8808 26.2744 59.4788 26.1952 59.0721C25.7061 57.1393 24.8062 55.3347 23.5568 53.781C23.28 53.473 23.0209 53.1495 22.7808 52.8122C23.1222 53.0532 23.4278 53.3414 23.6885 53.6682C25.0333 55.1929 25.9559 57.0429 26.3645 59.0344C26.47 59.4395 26.5159 59.8578 26.5009 60.2761Z" fill="#263238"/>
<g opacity="0.3">
<path d="M26.741 62.7217C26.1719 65.807 25.7674 69.3061 25.2783 72.3914C25.3912 72.5325 25.3301 72.9981 25.4476 73.1439C26.1155 71.46 26.664 69.7313 27.089 67.9704C27.3519 66.2162 27.2332 64.4259 26.741 62.7217Z" fill="black"/>
</g>
<g opacity="0.3">
<path d="M38.8516 52.831L43.0844 53.4189C41.3929 52.5005 39.7914 51.425 38.3013 50.2066C37.7746 51.4483 37.4783 51.9045 37.5676 53.7011C35.5171 51.9797 33.5794 50.0138 31.5288 48.2924C33.6358 51.3997 36.2198 54.1551 39.1855 56.4571C38.9123 55.2688 38.8 54.0492 38.8516 52.831Z" fill="black"/>
</g>
<path d="M90.1063 46.8157C90.1063 46.8486 89.9934 46.9192 89.9699 47.1214C89.9604 47.1736 89.9626 47.2273 89.9764 47.2786C89.9903 47.3298 90.0153 47.3773 90.0498 47.4177C90.0931 47.4601 90.1482 47.4882 90.2079 47.4983C90.2676 47.5084 90.329 47.5 90.3838 47.4741C90.4407 47.4567 90.4911 47.4229 90.5288 47.3769C90.5665 47.3308 90.5896 47.2747 90.5954 47.2155C90.5939 47.1626 90.5814 47.1106 90.5588 47.0628C90.5361 47.0151 90.5037 46.9725 90.4637 46.938C90.3132 46.8016 90.1627 46.8298 90.1533 46.7969C90.1439 46.764 90.3132 46.6511 90.5625 46.7969C90.6361 46.8396 90.6981 46.8996 90.7432 46.9717C90.7882 47.0439 90.815 47.1259 90.8212 47.2107C90.8177 47.3159 90.782 47.4174 90.7189 47.5015C90.6558 47.5856 90.5684 47.6483 90.4684 47.6811C90.3674 47.7233 90.2556 47.7323 90.1492 47.707C90.0427 47.6816 89.947 47.6231 89.8758 47.54C89.8272 47.473 89.7951 47.3955 89.782 47.3138C89.7689 47.2321 89.7753 47.1484 89.8006 47.0697C89.9134 46.8063 90.111 46.7828 90.1063 46.8157Z" fill="#263238"/>
<path d="M36.8104 15.9208C37.0213 15.5023 37.3563 15.1592 37.7697 14.9386C38.1832 14.7181 38.6547 14.6307 39.1197 14.6886C39.6572 14.2537 40.3249 14.0115 41.0163 14.0004C41.7076 13.9893 42.3827 14.2101 42.9339 14.6274C43.3354 14.3722 43.7959 14.2251 44.271 14.2003C44.746 14.1754 45.2194 14.2738 45.6453 14.4858C46.0711 14.6977 46.435 15.0162 46.7015 15.4101C46.9681 15.8041 47.1284 16.2603 47.1667 16.7344C47.6415 16.6429 48.1329 16.703 48.5716 16.9062C49.0103 17.1095 49.374 17.4455 49.6111 17.8668C49.8483 18.2881 49.947 18.7733 49.8932 19.2537C49.8394 19.7342 49.6358 20.1856 49.3114 20.544C49.837 20.6968 50.2873 21.0388 50.5757 21.5041C50.864 21.9693 50.9699 22.5248 50.8729 23.0635C50.7759 23.6022 50.4829 24.0859 50.0504 24.4214C49.6179 24.7569 49.0765 24.9203 48.5307 24.8803L37.3137 18.4934C36.9731 18.1699 36.7416 17.7484 36.6515 17.2874C36.5613 16.8264 36.6168 16.3488 36.8104 15.9208Z" fill="#263238"/>
<path d="M49.9695 37.1413C49.9131 34.7051 49.3957 29.701 48.869 25.1766C48.5943 22.8336 47.4492 20.6793 45.6608 19.1409C43.8724 17.6025 41.5712 16.7923 39.2134 16.8708H38.7431C33.4756 17.3788 30.9876 22.0913 31.6226 27.2977L33.0947 43.7587L43.2158 52.9627L45.4216 46.4583L45.0688 43.1661C45.0688 43.1661 50.0824 42.1784 49.9695 37.1413Z" fill="#FFBE9D"/>
<path d="M45.1114 43.1284C42.7694 43.2055 40.4545 42.608 38.4424 41.4071C38.4424 41.4071 40.1214 44.9815 45.1349 44.3512L45.1114 43.1284Z" fill="#EB996E"/>
<path d="M47.5855 29.5599C47.5933 29.7469 47.5279 29.9296 47.4032 30.0692C47.2785 30.2088 47.1044 30.2944 46.9176 30.3077C46.8264 30.3181 46.734 30.3102 46.6458 30.2845C46.5577 30.2588 46.4755 30.2158 46.4041 30.158C46.3328 30.1002 46.2736 30.0288 46.2302 29.9479C46.1867 29.867 46.1598 29.7783 46.151 29.6868C46.1432 29.4993 46.2084 29.3161 46.333 29.1757C46.4575 29.0353 46.6318 28.9488 46.8189 28.9343C46.9105 28.9239 47.0032 28.932 47.0917 28.958C47.1801 28.9839 47.2625 29.0273 47.3339 29.0856C47.4054 29.1439 47.4644 29.2159 47.5076 29.2973C47.5508 29.3788 47.5773 29.468 47.5855 29.5599Z" fill="#263238"/>
<path d="M47.8722 27.6833C47.7875 27.7774 47.2278 27.3917 46.4612 27.4246C45.6946 27.4576 45.1302 27.8573 45.0503 27.768C44.9703 27.6786 45.0926 27.5516 45.3325 27.3635C45.6588 27.1189 46.0535 26.9824 46.4612 26.9731C46.8609 26.9591 47.2546 27.0728 47.5853 27.2977C47.8298 27.4717 47.9145 27.6363 47.8722 27.6833Z" fill="#263238"/>
<path d="M40.573 29.9362C40.582 30.124 40.5172 30.3079 40.3924 30.4485C40.2676 30.5892 40.0927 30.6754 39.9051 30.6887C39.8138 30.6991 39.7213 30.691 39.6331 30.665C39.5449 30.6389 39.4629 30.5955 39.3918 30.5371C39.3207 30.4788 39.2621 30.4068 39.2194 30.3253C39.1767 30.2439 39.1508 30.1548 39.1432 30.0631C39.1354 29.8761 39.2008 29.6934 39.3255 29.5538C39.4501 29.4142 39.6243 29.3286 39.8111 29.3153C39.9021 29.3043 39.9945 29.3117 40.0827 29.3372C40.1708 29.3627 40.253 29.4057 40.3241 29.4636C40.3952 29.5216 40.4539 29.5933 40.4967 29.6745C40.5395 29.7557 40.5654 29.8447 40.573 29.9362Z" fill="#263238"/>
<path d="M40.267 28.0925C40.1824 28.1866 39.6227 27.8056 38.8561 27.8338C38.0895 27.862 37.5298 28.2665 37.4451 28.1772C37.3605 28.0878 37.4875 27.9655 37.732 27.7727C38.0584 27.5281 38.4531 27.3916 38.8608 27.3823C39.2636 27.3663 39.661 27.48 39.9942 27.7068C40.2247 27.8809 40.3094 28.0455 40.267 28.0925Z" fill="#263238"/>
<path d="M43.2773 33.7363C43.6807 33.5913 44.1013 33.4996 44.5284 33.4635C44.7259 33.4353 44.9093 33.3929 44.9375 33.2566C44.9484 33.0513 44.8958 32.8477 44.787 32.6734L44.1474 31.1872C43.2632 29.0755 42.6142 27.3306 42.6988 27.2977C42.7835 27.2648 43.5736 28.9485 44.4578 31.0602C44.6741 31.5775 44.8764 32.0761 45.0739 32.5511C45.2037 32.7876 45.2485 33.0615 45.2009 33.3271C45.1759 33.3981 45.1343 33.4621 45.0794 33.5136C45.0246 33.5652 44.9582 33.6028 44.8858 33.6234C44.778 33.6599 44.6656 33.6805 44.5519 33.6845C44.1308 33.7549 43.7027 33.7723 43.2773 33.7363Z" fill="#263238"/>
<path d="M41.0006 34.3524C41.1229 34.3524 41.1558 35.1848 41.8942 35.7633C42.6326 36.3418 43.5262 36.2101 43.5356 36.3277C43.545 36.4453 43.3428 36.497 42.9665 36.5205C42.4743 36.5481 41.9886 36.3979 41.5979 36.0973C41.221 35.8108 40.9698 35.3893 40.8971 34.9215C40.8736 34.5593 40.9583 34.3524 41.0006 34.3524Z" fill="#263238"/>
<path d="M40.3613 25.0496C40.2955 25.2612 39.5148 25.1907 38.6118 25.3317C37.7087 25.4728 36.9798 25.7456 36.8528 25.5622C36.7963 25.4728 36.9186 25.2706 37.2055 25.0543C37.5909 24.7868 38.0341 24.6144 38.4989 24.551C38.9626 24.4795 39.4366 24.5198 39.8816 24.6686C40.2202 24.7909 40.3895 24.9461 40.3613 25.0496Z" fill="#263238"/>
<path d="M47.5101 25.4494C47.3831 25.6328 46.8422 25.4494 46.1979 25.4823C45.5536 25.5152 45.0174 25.6422 44.8857 25.4823C44.8293 25.3976 44.8857 25.2189 45.1397 25.0449C45.4504 24.8295 45.8198 24.7146 46.1979 24.7157C46.5752 24.7103 46.9449 24.822 47.2561 25.0355C47.4866 25.186 47.5853 25.3647 47.5101 25.4494Z" fill="#263238"/>
<path d="M48.3051 22.8861C48.3051 22.8861 46.8659 19.7774 45.3186 19.0907C43.4373 18.2677 42.7225 20.3135 40.9541 19.8855C39.1857 19.4575 37.3938 18.6627 35.6442 20.0831C33.7348 21.6351 34.7036 22.6463 34.6472 24.885C34.4685 33.9667 32.9023 36.5864 32.2956 32.3347C32.2251 31.8644 30.9176 31.5399 30.6542 29.5693C30.3156 27.0155 30.1087 23.9255 30.6166 22.0725C31.0446 20.5205 31.8817 19.434 33.4103 18.2112C35.8183 16.2829 39.2139 16.123 41.5326 16.2735C43.8512 16.424 48.3803 18.9261 48.3051 22.8861Z" fill="#263238"/>
<path d="M32.6012 32.1842C32.5885 31.9995 32.5384 31.8193 32.4539 31.6545C32.3695 31.4897 32.2526 31.3438 32.1101 31.2255C31.9676 31.1072 31.8027 31.0191 31.6252 30.9664C31.4477 30.9138 31.2613 30.8976 31.0774 30.9191C30.1368 31.0414 29.1162 31.6104 29.2432 33.5481C29.4736 36.9908 32.8834 36.0502 32.8787 35.9514C32.874 35.8527 32.7094 33.6234 32.6012 32.1842Z" fill="#FFBE9D"/>
<path d="M32.0649 34.7051C32.0649 34.7051 32.0085 34.7521 31.9097 34.8039C31.7715 34.8741 31.6118 34.8892 31.4629 34.8462C31.2251 34.7234 31.0246 34.5391 30.8823 34.3124C30.7401 34.0857 30.6612 33.8251 30.654 33.5575C30.6259 33.2646 30.6628 32.9691 30.7622 32.6921C30.7879 32.5819 30.8398 32.4795 30.9135 32.3935C30.9872 32.3076 31.0804 32.2406 31.1854 32.1983C31.2528 32.1762 31.3258 32.1782 31.3918 32.2039C31.4579 32.2296 31.5129 32.2775 31.5476 32.3394C31.5993 32.4335 31.5852 32.504 31.604 32.5087C31.6228 32.5134 31.6746 32.4476 31.6369 32.3065C31.6111 32.2227 31.5582 32.1499 31.4864 32.0996C31.386 32.0355 31.265 32.012 31.1478 32.0337C31.0092 32.0716 30.8825 32.1441 30.7796 32.2445C30.6768 32.3449 30.6012 32.4698 30.5599 32.6075C30.4313 32.9149 30.3812 33.2495 30.4141 33.581C30.4847 34.2724 30.8844 34.8979 31.3877 34.992C31.4816 35.0118 31.5788 35.0107 31.6723 34.9888C31.7657 34.9669 31.8532 34.9246 31.9285 34.865C32.0649 34.7897 32.0649 34.7098 32.0649 34.7051Z" fill="#EB996E"/>
<path d="M32.4366 25.5105C32.8716 25.8366 33.3806 26.0499 33.9181 26.1313C34.1874 26.1628 34.459 26.0959 34.6829 25.9429C34.9067 25.7899 35.0677 25.5612 35.1362 25.2989C35.1692 25.0543 35.1033 24.7815 35.2538 24.5887C35.4043 24.3959 35.7806 24.4194 36.0722 24.4382C36.5774 24.4603 37.0748 24.3078 37.4808 24.0063C37.8868 23.7048 38.1766 23.2727 38.3014 22.7827C38.4638 22.9442 38.6794 23.041 38.908 23.0548C39.1366 23.0687 39.3624 22.9987 39.5431 22.8579C39.8887 22.5547 40.1924 22.2067 40.4461 21.8232C40.573 21.6305 40.7453 21.4718 40.9478 21.3611C41.1504 21.2504 41.377 21.1911 41.6077 21.1883C41.8527 21.2625 42.105 21.3098 42.3602 21.3294C42.8306 21.273 43.014 20.7321 43.0657 20.2806C43.1175 19.8291 43.1551 19.3071 43.536 19.0484C43.917 18.7897 44.345 18.9261 44.7636 18.9731C45.1821 19.0202 45.7042 18.9026 45.8076 18.5028C45.8229 18.3937 45.8154 18.2825 45.7854 18.1765C45.7555 18.0704 45.7038 17.9717 45.6336 17.8867C45.34 17.4792 44.9172 17.183 44.4338 17.0464C43.9505 16.9098 43.4352 16.9407 42.9717 17.1342C42.7813 16.5673 42.4273 16.0695 41.9545 15.7034C41.4816 15.3373 40.9109 15.1194 40.3144 15.0772C39.7179 15.0349 39.1222 15.1702 38.6024 15.466C38.0827 15.7617 37.6621 16.2047 37.3937 16.7392C37.0174 16.4216 36.5702 16.1992 36.0899 16.0907C35.6095 15.9822 35.1101 15.9907 34.6338 16.1157C34.1575 16.2407 33.7182 16.4783 33.353 16.8086C32.9878 17.139 32.7074 17.5523 32.5354 18.0137C32.1093 17.9179 31.6645 17.9494 31.2562 18.1042C30.8479 18.259 30.494 18.5304 30.2385 18.8845C29.9831 19.2387 29.8372 19.6601 29.8191 20.0964C29.801 20.5327 29.9115 20.9647 30.1368 21.3388C29.8197 21.5077 29.5512 21.755 29.3569 22.0572C29.1626 22.3594 29.049 22.7063 29.0269 23.0649C29.0269 23.7797 29.7558 24.4758 30.4378 24.2548C30.2919 24.5421 30.2644 24.8752 30.3612 25.1826C30.458 25.4901 30.6713 25.7473 30.9555 25.8993C31.2398 26.0512 31.5722 26.0858 31.8816 25.9955C32.191 25.9053 32.4527 25.6974 32.6106 25.4164" fill="#263238"/>
<path d="M30.1835 24.25C30.1745 24.3698 30.1913 24.4901 30.2327 24.6029C30.274 24.7156 30.3391 24.8182 30.4234 24.9038C30.601 25.1181 30.8529 25.2575 31.1288 25.2941C31.3039 25.3144 31.4812 25.2962 31.6485 25.241C31.8158 25.1858 31.9691 25.0948 32.0977 24.9743H31.9519C32.1471 25.2888 32.3899 25.5712 32.6715 25.8115C32.8599 25.9726 33.0768 26.0971 33.3111 26.1783C33.5359 26.2504 33.7752 26.265 34.0072 26.2206C34.2037 26.1963 34.3927 26.1294 34.5608 26.0246C34.7289 25.9198 34.8722 25.7797 34.9807 25.6139C35.1129 25.3919 35.1993 25.1456 35.2347 24.8897C35.2512 24.7963 35.2512 24.7008 35.2347 24.6075C35.1904 24.6901 35.1587 24.7789 35.1406 24.8708C35.0783 25.1064 34.9782 25.3304 34.8443 25.534C34.7209 25.6838 34.5679 25.8066 34.3948 25.8946C34.2218 25.9826 34.0324 26.034 33.8386 26.0454C33.6448 26.0569 33.4508 26.0283 33.2685 25.9613C33.0863 25.8944 32.9199 25.7905 32.7796 25.6563C32.5124 25.4325 32.2808 25.1692 32.093 24.8755L32.0648 24.758L31.9801 24.8379C31.8721 24.9434 31.7428 25.0244 31.6008 25.0755C31.4588 25.1267 31.3075 25.1467 31.1571 25.1342C30.9155 25.1085 30.6908 24.9986 30.5221 24.8238C30.3728 24.6566 30.2577 24.4616 30.1835 24.25Z" fill="#455A64"/>
<path d="M39.8485 34.8933C39.9049 34.8933 39.9143 34.5264 40.1965 34.216C40.4787 33.9056 40.8267 33.8445 40.822 33.788C40.8173 33.7316 40.7279 33.7363 40.568 33.788C40.3667 33.839 40.1856 33.95 40.0487 34.1062C39.9118 34.2624 39.8256 34.4565 39.8014 34.6628C39.7873 34.8227 39.8249 34.8933 39.8485 34.8933Z" fill="#EB996E"/>
<path d="M39.51 33.9526C39.5617 33.9808 39.684 33.8538 39.8627 33.7692C40.0414 33.6845 40.2107 33.6516 40.2201 33.5952C40.2295 33.5387 40.0085 33.4682 39.7498 33.5952C39.4911 33.7221 39.4629 33.9291 39.51 33.9526Z" fill="#EB996E"/>
<path d="M45.817 14.571C45.817 14.5381 46.1885 14.7591 46.466 15.3329C46.6362 15.6642 46.7415 16.025 46.7764 16.3958C46.8212 16.8651 46.6942 17.3346 46.419 17.7174C46.136 18.0794 45.7675 18.3654 45.3466 18.5498C45.0172 18.7013 44.6777 18.8301 44.3308 18.9355C44.0267 19.0509 43.7115 19.1344 43.3901 19.1848C43.6707 19.006 43.9746 18.8668 44.2931 18.7709C44.58 18.658 44.914 18.5263 45.2667 18.3476C45.6488 18.1688 45.9839 17.903 46.2449 17.5716C46.4858 17.2341 46.6021 16.8236 46.5742 16.4099C46.5517 16.0633 46.4706 15.7229 46.3343 15.4034C46.1972 15.1055 46.0234 14.8259 45.817 14.571Z" fill="#E0E0E0"/>
<path d="M48.0038 16.8332C48.0321 16.8332 48.0556 17.0542 47.9615 17.3881C47.8302 17.825 47.5832 18.2183 47.2466 18.5263C46.9126 18.8368 46.5019 19.0527 46.0567 19.1518C45.7134 19.2177 45.4971 19.1518 45.4971 19.1518C45.4971 19.1518 45.704 19.0907 46.0097 18.9872C46.407 18.8514 46.772 18.6353 47.082 18.3523C47.3883 18.067 47.6317 17.721 47.7969 17.3364C47.9239 17.0354 47.9662 16.8285 48.0038 16.8332Z" fill="#E0E0E0"/>
</g>
<defs>
<filter id="filter0_d_119_1244" x="0" y="0" width="117.252" height="210.96" filterUnits="userSpaceOnUse" color-interpolation-filters="sRGB">
<feFlood flood-opacity="0" result="BackgroundImageFix"/>
<feColorMatrix in="SourceAlpha" type="matrix" values="0 0 0 0 0 0 0 0 0 0 0 0 0 0 0 0 0 0 127 0" result="hardAlpha"/>
<feOffset dy="-2"/>
<feGaussianBlur stdDeviation="6"/>
<feComposite in2="hardAlpha" operator="out"/>
<feColorMatrix type="matrix" values="0 0 0 0 1 0 0 0 0 1 0 0 0 0 1 0 0 0 0.06 0"/>
<feBlend mode="normal" in2="BackgroundImageFix" result="effect1_dropShadow_119_1244"/>
<feBlend mode="normal" in="SourceGraphic" in2="effect1_dropShadow_119_1244" result="shape"/>
</filter>
</defs>
</svg>
